<svg width="2048" height="2048" viewBox="0 0 2048 2048" fill="none" xmlns="http://www.w3.org/2000/svg">
<path fill-rule="evenodd" clip-rule="evenodd" d="M1024 2048C1589.54 2048 2048 1589.54 2048 1024C2048 458.46 1589.54 0 1024 0C458.46 0 0 458.46 0 1024C0 1589.54 458.46 2048 1024 2048ZM1690.97 727.839L1557.95 1242.42C1546.34 1287.35 1505.79 1318.75 1459.38 1318.75H1111.84H1012.12H664.576C618.168 1318.75 577.618 1287.35 566.006 1242.42L521.38 1073.66L483.533 923.423C463.532 843.832 443.47 764.282 423.406 684.722L423.401 684.701C408.581 625.938 393.761 567.169 378.962 508.375C378.952 508.345 378.947 508.319 378.941 508.294L378.941 508.293C378.936 508.268 378.931 508.242 378.921 508.211C364.442 450.785 404.152 391.803 465.428 385.823C514.314 381.051 558.838 414.454 570.859 462.049L605.716 600.494H653.271H845.885H1012.1H1111.8H1278.01H1470.63H1592.36C1658.98 600.535 1707.64 663.368 1690.97 727.839ZM1330.63 1681.53C1260.67 1676.02 1204.02 1619.33 1198.49 1549.41C1191.49 1460.49 1265.15 1386.82 1354.06 1393.85C1424.02 1399.36 1480.66 1456.05 1486.19 1525.96C1493.18 1614.89 1419.55 1688.56 1330.63 1681.53ZM769.925 1681.53C699.965 1676.02 643.318 1619.33 637.809 1549.41C630.784 1460.49 704.43 1386.82 793.354 1393.85C863.314 1399.36 919.962 1456.05 925.491 1525.96C932.495 1614.89 858.849 1688.56 769.925 1681.53ZM1422.5 1061.44C1387.5 953.405 1298.63 826.163 1074.19 826.163C1071.62 826.163 1069.13 826.215 1066.64 826.267H1066.63C1065.99 826.281 1065.35 826.294 1064.71 826.306C1063.54 826.291 1062.36 826.267 1061.19 826.244C1059.21 826.203 1057.23 826.163 1055.21 826.163C830.748 826.163 741.885 953.405 706.885 1061.44C691.402 1109.26 729.679 1153.49 775.022 1152.33H1354.4C1399.72 1153.49 1438 1109.26 1422.5 1061.44Z" fill="black"/>
</svg>
