<svg width="84" height="44" viewBox="0 0 84 44" fill="none" xmlns="http://www.w3.org/2000/svg">
<path d="M0 13.3029H2.00048V14.9327H2.04365C2.17318 14.6442 2.36027 14.399 2.57615 14.1683C2.79203 13.9375 3.05108 13.7356 3.32453 13.5769C3.59798 13.4183 3.90021 13.2885 4.23122 13.1875C4.56224 13.0865 4.87886 13.0433 5.20987 13.0433C5.54089 13.0433 5.82872 13.0865 6.10217 13.1731L6.01582 15.3365C5.85751 15.2933 5.6848 15.25 5.52649 15.2212C5.36818 15.1923 5.19548 15.1779 5.03717 15.1779C4.05852 15.1779 3.31014 15.4519 2.79203 16C2.27392 16.5481 2.01487 17.4135 2.01487 18.5673V23.8894H0V13.3029Z" fill="#313131"/>
<path d="M7.33936 18.5962C7.33936 17.8173 7.48327 17.0962 7.77111 16.4327C8.05895 15.7692 8.46192 15.1779 8.96564 14.6731C9.46936 14.1683 10.0594 13.7644 10.7502 13.476C11.4267 13.1875 12.175 13.0433 12.9522 13.0433C13.7438 13.0433 14.4777 13.1875 15.1542 13.476C15.8306 13.7644 16.435 14.1683 16.9388 14.6731C17.4425 15.1779 17.8454 15.7692 18.1333 16.4327C18.4211 17.0962 18.565 17.8317 18.565 18.5962C18.565 19.375 18.4211 20.0962 18.1333 20.774C17.8454 21.4519 17.4425 22.0433 16.9388 22.5337C16.435 23.0385 15.845 23.4279 15.1542 23.7163C14.4634 24.0048 13.7294 24.149 12.9522 24.149C12.1606 24.149 11.4267 24.0048 10.7502 23.7163C10.0594 23.4279 9.46936 23.024 8.96564 22.5337C8.46192 22.0288 8.05895 21.4519 7.77111 20.774C7.48327 20.1106 7.33936 19.375 7.33936 18.5962ZM9.46936 18.5962C9.46936 19.1298 9.55571 19.6346 9.71402 20.0817C9.87233 20.5433 10.1026 20.9183 10.4048 21.25C10.7071 21.5673 11.0669 21.8269 11.4986 22.0144C11.9304 22.2019 12.4197 22.2885 12.9522 22.2885C13.4847 22.2885 13.974 22.2019 14.4058 22.0144C14.8375 21.8269 15.1973 21.5817 15.4996 21.25C15.8018 20.9327 16.0321 20.5433 16.1904 20.0817C16.3487 19.6346 16.435 19.1298 16.435 18.5962C16.435 18.0625 16.3487 17.5577 16.1904 17.1106C16.0321 16.6635 15.8018 16.274 15.4996 15.9423C15.1973 15.625 14.8375 15.3654 14.4058 15.1779C13.974 14.9904 13.4847 14.9038 12.9522 14.9038C12.4197 14.9038 11.9304 14.9904 11.4986 15.1779C11.0669 15.3654 10.7071 15.625 10.4048 15.9423C10.1026 16.2596 9.87233 16.649 9.71402 17.1106C9.55571 17.5721 9.46936 18.0625 9.46936 18.5962Z" fill="#313131"/>
<path d="M21.0986 7H23.0991V14.9327H23.1423C23.4013 14.3702 23.8331 13.9087 24.4519 13.5625C25.0708 13.2163 25.7904 13.0433 26.6107 13.0433C27.1144 13.0433 27.6038 13.1154 28.0643 13.274C28.5392 13.4327 28.9422 13.6779 29.2876 13.9952C29.633 14.3269 29.9209 14.7452 30.1224 15.2644C30.3238 15.7837 30.439 16.3894 30.439 17.0817V23.8894H28.4385V17.6298C28.4385 17.1394 28.3665 16.7212 28.237 16.3606C28.1075 16.0144 27.9204 15.726 27.7045 15.5096C27.4886 15.2933 27.2296 15.1346 26.9417 15.0337C26.6539 14.9327 26.3517 14.8894 26.0351 14.8894C25.6177 14.8894 25.2291 14.9615 24.8693 15.0913C24.5095 15.2212 24.2073 15.4375 23.9338 15.726C23.6604 16.0144 23.4589 16.3894 23.315 16.8365C23.1711 17.2837 23.0991 17.8173 23.0991 18.4231V23.875H21.0986V7Z" fill="#313131"/>
<path d="M35.6489 7H33.6484V23.8894H35.6489V7Z" fill="#313131"/>
<path d="M38.5269 9.50962C38.5269 9.10577 38.6708 8.75962 38.9586 8.47116C39.2465 8.18269 39.5919 8.03846 39.9948 8.03846C40.3978 8.03846 40.7432 8.18269 41.031 8.47116C41.3189 8.75962 41.4628 9.10577 41.4628 9.50962C41.4628 9.91346 41.3189 10.2596 41.031 10.5481C40.7432 10.8365 40.3978 10.9808 39.9948 10.9808C39.5919 10.9808 39.2465 10.8365 38.9586 10.5481C38.6708 10.2596 38.5269 9.91346 38.5269 9.50962ZM39.0018 13.3029H41.0023V23.8894H39.0018V13.3029Z" fill="#313131"/>
<path d="M44.1973 7H46.1977V17.9038L50.7456 13.3317H53.5376L48.6012 18.1346L53.955 23.9038H51.1054L46.1977 18.4087V23.9038H44.1973V7Z" fill="#313131"/>
<path d="M37.0454 36.149C37.0454 35.9327 37.1174 35.7596 37.2613 35.601C37.4052 35.4567 37.5923 35.3846 37.7938 35.3846C38.0097 35.3846 38.1824 35.4567 38.3263 35.601C38.4702 35.7452 38.5422 35.9327 38.5422 36.149C38.5422 36.3654 38.4702 36.5385 38.3263 36.6827C38.1824 36.8269 37.9953 36.899 37.7938 36.899C37.5779 36.899 37.4052 36.8269 37.2613 36.6827C37.1174 36.5385 37.0454 36.351 37.0454 36.149Z" fill="#767676"/>
<path d="M47.2634 35.7308C46.9036 36.1635 46.5006 36.4808 46.0401 36.6971C45.5795 36.899 45.0902 37 44.5577 37C43.9964 37 43.4783 36.899 43.0034 36.7115C42.5285 36.524 42.1255 36.25 41.7801 35.9038C41.4347 35.5577 41.1756 35.1538 40.9885 34.6779C40.8014 34.2019 40.7007 33.6827 40.7007 33.1346C40.7007 32.5721 40.8014 32.0529 40.9885 31.5913C41.1756 31.1154 41.4491 30.7115 41.7801 30.3654C42.1255 30.0192 42.5285 29.7596 43.0034 29.5577C43.4783 29.3702 43.9964 29.2692 44.5577 29.2692C45.0902 29.2692 45.5939 29.3846 46.0545 29.601C46.515 29.8173 46.918 30.1346 47.2778 30.5385L46.515 31.1154C46.2416 30.8125 45.9393 30.5673 45.6083 30.3942C45.2773 30.2211 44.9319 30.1346 44.5433 30.1346C44.0972 30.1346 43.6942 30.2212 43.3344 30.3798C42.9746 30.5385 42.6724 30.7548 42.4133 31.0288C42.1543 31.3029 41.9672 31.6202 41.8376 31.9808C41.7081 32.3413 41.6362 32.7308 41.6362 33.149C41.6362 33.5673 41.7081 33.9567 41.8376 34.3173C41.9672 34.6779 42.1687 34.9952 42.4133 35.2692C42.6724 35.5433 42.9746 35.7596 43.3344 35.9183C43.6942 36.0769 44.0972 36.1635 44.5433 36.1635C44.9463 36.1635 45.3061 36.0769 45.6515 35.8894C45.9825 35.7019 46.2704 35.4567 46.515 35.1538L47.2634 35.7308Z" fill="#767676"/>
<path d="M47.9106 36.2356L52.3146 30.3221H48.1409V29.4712H53.6242V30.0337L49.2491 35.9471H53.8113V36.8125H47.9106V36.2356Z" fill="#767676"/>
<path fill-rule="evenodd" clip-rule="evenodd" d="M70.5006 14.8409C70.5006 14.8409 70.6044 14.3493 70.4063 13.7915C70.0195 12.7137 69.1516 11.2295 68.8497 11.4658C66.9347 12.969 62.7368 12.7799 59.8596 11.5603C59.6426 11.4658 60.5011 15.6823 60.3595 16.2212C60.218 16.7506 63.8688 18.4239 67.4724 17.1571C70.9629 15.9281 70.5006 14.8409 70.5006 14.8409ZM74.8872 34.0324C75.2268 34.0797 75.3306 32.7656 75.1513 31.6784C75.0287 30.941 74.6325 30.2887 74.6325 30.2887C74.6325 30.2887 74.491 29.1164 70.8496 29.8065C67.1045 30.5156 64.765 33.7866 65.1612 34.1837C65.5574 34.5713 66.7555 38.9201 66.897 38.7311C68.7837 36.2163 72.4816 33.6921 74.8872 34.0324ZM79.5851 36.5756C79.5851 36.5756 78.8776 35.668 75.9249 36.2258C72.1798 36.9348 69.8403 40.2059 70.2365 40.6029C70.6327 40.9906 72.7741 42.2763 72.9533 42.125C75.2834 40.1681 79.5945 40.0263 79.9624 40.4706C80.3304 40.896 79.5851 36.5756 79.5851 36.5756ZM68.5667 9.29139C71.3968 8.29873 71.6421 7.07917 71.6421 7.07917C71.6421 7.07917 71.727 6.11486 71.5949 5.65162C71.2647 4.49823 70.0101 3.25031 69.944 3.60956C69.8403 4.1768 66.0385 6.2094 63.0481 5.68943C62.8123 5.65162 61.5953 7.82603 61.4538 8.36491C61.3218 8.88487 64.9725 10.5582 68.5667 9.29139Z" fill="#DD811E"/>
<path fill-rule="evenodd" clip-rule="evenodd" d="M68.9627 4.0728C70.7928 5.24509 71.4815 6.75773 71.6324 7.14534C71.9343 6.13377 72.2928 5.15055 72.7079 4.21461C72.6984 4.21461 72.6984 4.21461 72.689 4.21461C72.9626 3.60956 73.0475 2.90051 72.8588 2.21037C72.4343 0.631555 70.8211 -0.313842 69.2457 0.111587C69.0099 0.177764 68.7835 0.272304 68.576 0.385752V0.376298C67.2836 1.23661 66.0949 2.21037 65.0195 3.27867C65.7553 3.08959 67.5666 3.18413 68.9627 4.0728ZM70.5381 15.0583C70.5287 13.5268 70.6419 12.0141 70.8683 10.5582C70.491 9.63173 69.2457 8.06238 67.9345 7.19261C65.4629 5.55707 63.5573 5.58544 62.9158 5.65161C62.1234 6.6821 61.4159 7.77876 60.7933 8.93214C64.4818 9.50883 69.491 12.657 70.5381 15.0583ZM82.9998 40.1208C82.764 39.251 82.1886 38.5987 81.4811 38.1544C81.4527 38.126 81.4527 38.126 81.4339 38.1165C80.7452 37.5871 80.1132 37.0482 79.4717 36.4243C79.5377 36.8119 79.7547 38.6082 78.7265 40.584C77.9906 41.9927 76.4907 43.0232 75.6983 43.3162C76.9812 43.6566 78.3019 43.8929 79.6415 44.0064C79.6415 43.9969 79.6415 43.9969 79.6415 43.9875C80.0189 44.0347 80.4151 44.0064 80.8113 43.9024C82.4621 43.4864 83.4432 41.7847 82.9998 40.1208ZM77.1228 33.8717C76.1888 32.7089 75.3304 31.442 74.5568 30.0901C74.8776 32.5671 72.0003 38.0598 69.0099 40.4044C70.1608 41.1324 71.3683 41.7658 72.6324 42.2952C73.1324 42.0872 74.8964 41.1891 76.2832 38.4096C77.0284 36.9253 77.3114 34.7887 77.1228 33.8717ZM71.5947 22.8295C69.8589 16.3441 64.9063 11.8156 59.6613 11.3713C57.8123 15.9943 57.3878 21.2318 58.7745 26.422C60.1329 31.5082 63.029 35.7625 66.8213 38.835C71.2457 35.8665 73.3493 29.3811 71.5947 22.8295Z" fill="#FBBD47"/>
</svg>
